<svg xmlns="http://www.w3.org/2000/svg" viewBox="0 0 24 24" width="24" height="24" fill="none" stroke="currentColor" stroke-width="1.65" stroke-linecap="round" stroke-linejoin="round" role="img" aria-label="Care Team Change"><title>Care Team Change</title><svg xmlns="http://www.w3.org/2000/svg" width="18" height="18" viewBox="0 0 24 24" fill="none" stroke="currentColor" stroke-width="2.1999999999999997" stroke-linecap="round" stroke-linejoin="round" class="lucide lucide-users" x="0" y="0" aria-hidden="true" focusable="false"><path d="M16 21v-2a4 4 0 0 0-4-4H6a4 4 0 0 0-4 4v2"></path><circle cx="9" cy="7" r="4"></circle><path d="M22 21v-2a4 4 0 0 0-3-3.87"></path><path d="M16 3.13a4 4 0 0 1 0 7.75"></path></svg><svg xmlns="http://www.w3.org/2000/svg" width="10" height="10" viewBox="0 0 24 24" fill="none" stroke="currentColor" stroke-width="3.9599999999999995" stroke-linecap="round" stroke-linejoin="round" class="lucide lucide-arrow-left-right" x="14" y="14" aria-hidden="true" focusable="false"><path d="M8 3 4 7l4 4"></path><path d="M4 7h16"></path><path d="m16 21 4-4-4-4"></path><path d="M20 17H4"></path></svg></svg>