<svg xmlns="http://www.w3.org/2000/svg" viewBox="0 0 24 24" width="24" height="24" fill="none" stroke="currentColor" stroke-width="1.65" stroke-linecap="round" stroke-linejoin="round" role="img" aria-label="Daycare Arrangement"><title>Daycare Arrangement</title><svg xmlns="http://www.w3.org/2000/svg" width="18" height="18" viewBox="0 0 24 24" fill="none" stroke="currentColor" stroke-width="2.1999999999999997" stroke-linecap="round" stroke-linejoin="round" class="lucide lucide-hand-heart" x="0" y="0" aria-hidden="true" focusable="false"><path d="M11 14h2a2 2 0 1 0 0-4h-3c-.6 0-1.1.2-1.4.6L3 16"></path><path d="m7 20 1.6-1.4c.3-.4.8-.6 1.4-.6h4c1.1 0 2.1-.4 2.8-1.2l4.6-4.4a2 2 0 0 0-2.75-2.91l-4.2 3.9"></path><path d="m2 15 6 6"></path><path d="M19.5 8.5c.7-.7 1.5-1.6 1.5-2.7A2.73 2.73 0 0 0 16 4a2.78 2.78 0 0 0-5 1.8c0 1.2.8 2 1.5 2.8L16 12Z"></path></svg><svg xmlns="http://www.w3.org/2000/svg" width="10" height="10" viewBox="0 0 24 24" fill="none" stroke="currentColor" stroke-width="3.9599999999999995" stroke-linecap="round" stroke-linejoin="round" class="lucide lucide-sun" x="14" y="14" aria-hidden="true" focusable="false"><circle cx="12" cy="12" r="4"></circle><path d="M12 2v2"></path><path d="M12 20v2"></path><path d="m4.93 4.93 1.41 1.41"></path><path d="m17.66 17.66 1.41 1.41"></path><path d="M2 12h2"></path><path d="M20 12h2"></path><path d="m6.34 17.66-1.41 1.41"></path><path d="m19.07 4.93-1.41 1.41"></path></svg></svg>