<svg xmlns="http://www.w3.org/2000/svg" viewBox="0 0 24 24" width="24" height="24" fill="none" stroke="currentColor" stroke-width="1.65" stroke-linecap="round" stroke-linejoin="round" role="img" aria-label="Single mom"><title>Single mom</title><svg xmlns="http://www.w3.org/2000/svg" width="18" height="18" viewBox="0 0 24 24" fill="none" stroke="currentColor" stroke-width="2.1999999999999997" stroke-linecap="round" stroke-linejoin="round" class="lucide lucide-female" x="0" y="0" aria-hidden="true" focusable="false"><circle cx="12" cy="8" r="6"></circle><path d="M12 14v8M8 18h8"></path></svg><svg xmlns="http://www.w3.org/2000/svg" width="10" height="10" viewBox="0 0 24 24" fill="none" stroke="currentColor" stroke-width="3.9599999999999995" stroke-linecap="round" stroke-linejoin="round" class="lucide lucide-baby" x="14" y="14" aria-hidden="true" focusable="false"><path d="M9 12h.01"></path><path d="M15 12h.01"></path><path d="M10 16c.5.3 1.2.5 2 .5s1.5-.2 2-.5"></path><path d="M19 6.3a9 9 0 0 1 1.8 3.9 2 2 0 0 1 0 3.6 9 9 0 0 1-17.6 0 2 2 0 0 1 0-3.6A9 9 0 0 1 12 3c2 0 3.5 1.1 3.5 2.5s-.9 2.5-2 2.5c-.8 0-1.5-.4-1.5-1"></path></svg></svg>