<svg xmlns="http://www.w3.org/2000/svg" viewBox="0 0 24 24" width="24" height="24" fill="none" stroke="currentColor" stroke-width="1.65" stroke-linecap="round" stroke-linejoin="round" role="img" aria-label="Upper-limb loss"><title>Upper-limb loss</title><svg xmlns="http://www.w3.org/2000/svg" width="18" height="18" viewBox="0 0 24 24" fill="none" stroke="currentColor" stroke-width="2.1999999999999997" stroke-linecap="round" stroke-linejoin="round" class="lucide lucide-hand" x="0" y="0" aria-hidden="true" focusable="false"><path d="M18 11V6a2 2 0 0 0-2-2a2 2 0 0 0-2 2"></path><path d="M14 10V4a2 2 0 0 0-2-2a2 2 0 0 0-2 2v2"></path><path d="M10 10.5V6a2 2 0 0 0-2-2a2 2 0 0 0-2 2v8"></path><path d="M18 8a2 2 0 1 1 4 0v6a8 8 0 0 1-8 8h-2c-2.8 0-4.5-.86-5.99-2.34l-3.6-3.6a2 2 0 0 1 2.83-2.82L7 15"></path></svg><svg xmlns="http://www.w3.org/2000/svg" width="10" height="10" viewBox="0 0 24 24" fill="none" stroke="currentColor" stroke-width="3.9599999999999995" stroke-linecap="round" stroke-linejoin="round" class="lucide lucide-minus" x="14" y="14" aria-hidden="true" focusable="false"><path d="M5 12h14"></path></svg></svg>